<svg width="49" height="49" viewBox="0 0 49 49" fill="none" xmlns="http://www.w3.org/2000/svg">
<g id="&#208;&#160;&#208;&#181;&#209;&#129;&#209;&#131;&#209;&#128;&#209;&#129; 2 1" clip-path="url(#clip0_170_211)">
<g id="&#208;&#161;&#208;&#187;&#208;&#190;&#208;&#185; 2">
<g id="Layer 1">
<path id="Vector" d="M41.1832 -0.000976562H7.8168C3.4997 -0.000976562 0 3.49872 0 7.81583V41.1822C0 45.4993 3.4997 48.999 7.8168 48.999H41.1832C45.5003 48.999 49 45.4993 49 41.1822V7.81583C49 3.49872 45.5003 -0.000976562 41.1832 -0.000976562Z" fill="url(#paint0_linear_170_211)"/>
<path id="Vector_2" fill-rule="evenodd" clip-rule="evenodd" d="M17.3157 8.91959H31.7168C36.3433 8.91959 40.1498 12.7255 40.1498 17.3527V31.6798C40.1498 36.3063 36.3439 40.1129 31.7168 40.1129H17.3157C12.6885 40.1129 8.88263 36.3069 8.88263 31.6798V17.352C8.88263 12.7255 12.6879 8.91895 17.3157 8.91895V8.91959ZM32.9117 14.3687C33.3849 14.3745 33.8371 14.5648 34.1721 14.8991C34.5071 15.2334 34.6984 15.6852 34.7053 16.1584C34.6986 16.6313 34.5077 17.0829 34.1733 17.4172C33.8388 17.7516 33.3871 17.9423 32.9143 17.9488C32.6783 17.952 32.444 17.9078 32.2253 17.8189C32.0066 17.7301 31.808 17.5983 31.641 17.4314C31.4741 17.2646 31.3423 17.066 31.2533 16.8473C31.1644 16.6287 31.1202 16.3944 31.1232 16.1584C31.1201 15.9223 31.1643 15.688 31.2532 15.4693C31.3421 15.2506 31.4739 15.0519 31.6408 14.8849C31.8078 14.718 32.0064 14.5862 32.2252 14.4973C32.4439 14.4084 32.6782 14.3642 32.9143 14.3674L32.9117 14.3687ZM24.4786 16.0105H24.5532C29.1797 16.0105 33.0602 19.8904 33.0602 24.5169C33.0602 29.2186 29.1797 33.0239 24.5532 33.0239H24.4786C19.8521 33.0239 16.0455 29.2186 16.0455 24.5169C16.0455 19.8904 19.8515 16.0105 24.4786 16.0105ZM24.4786 18.9206H24.5532C27.6125 18.9206 30.1502 21.4576 30.1502 24.5169C30.1502 27.6514 27.6125 30.1884 24.5532 30.1884H24.4786C21.4187 30.1884 18.8817 27.6514 18.8817 24.5169C18.8817 21.4576 21.4187 18.9206 24.4786 18.9206ZM17.3903 11.6065H31.6428C33.1859 11.6084 34.6652 12.2222 35.7564 13.3132C36.8476 14.4043 37.4615 15.8835 37.4636 17.4266V31.6052C37.4615 33.1483 36.8476 34.6275 35.7564 35.7186C34.6652 36.8096 33.1859 37.4234 31.6428 37.4253H17.3903C15.8472 37.4234 14.3679 36.8096 13.2767 35.7186C12.1855 34.6275 11.5716 33.1483 11.5695 31.6052V17.4266C11.5716 15.8835 12.1855 14.4043 13.2767 13.3132C14.3679 12.2222 15.8472 11.6084 17.3903 11.6065Z" fill="white"/>
</g>
</g>
</g>
<defs>
<linearGradient id="paint0_linear_170_211" x1="0.579287" y1="4.28432" x2="48.4207" y2="44.7137" gradientUnits="userSpaceOnUse">
<stop offset="1" stop-color="#F4600D"/>
</linearGradient>
<clipPath id="clip0_170_211">
<rect width="49" height="49" fill="white"/>
</clipPath>
</defs>
</svg>
