<svg width="49" height="49" viewBox="0 0 49 49" fill="none" xmlns="http://www.w3.org/2000/svg">
<g id="&#208;&#160;&#208;&#181;&#209;&#129;&#209;&#131;&#209;&#128;&#209;&#129; 1 1" clip-path="url(#clip0_170_216)">
<g id="&#208;&#161;&#208;&#187;&#208;&#190;&#208;&#185; 2">
<g id="Layer 1">
<path id="Vector" d="M41.1832 -0.000976562H7.8168C3.4997 -0.000976562 0 3.49872 0 7.81583V41.1822C0 45.4993 3.4997 48.999 7.8168 48.999H41.1832C45.5003 48.999 49 45.4993 49 41.1822V7.81583C49 3.49872 45.5003 -0.000976562 41.1832 -0.000976562Z" fill="url(#paint0_linear_170_216)"/>
<path id="Vector_2" fill-rule="evenodd" clip-rule="evenodd" d="M9.76807 23.9795C16.51 21.1525 24.6654 17.1292 31.733 14.4105C38.2576 12.0188 38.1486 12.6707 37.1703 19.1953C36.4088 24.4148 35.5389 29.6342 34.669 34.8536C34.3446 37.3543 33.0381 38.6595 30.3195 37.137L21.8377 31.1567C20.6422 30.1778 20.9678 29.4169 21.9467 28.438L29.7752 21.0441C31.8413 18.978 30.8624 18.2164 28.4707 19.8479L17.7094 27.1334C16.1837 28.2187 14.5522 28.2187 12.8124 27.677L9.11484 26.3719C6.72244 25.502 8.57123 24.5237 9.76743 23.9795H9.76807Z" fill="white"/>
</g>
</g>
</g>
<defs>
<linearGradient id="paint0_linear_170_216" x1="0" y1="24.499" x2="49" y2="24.499" gradientUnits="userSpaceOnUse">
<stop stop-color="#F15700"/>
</linearGradient>
<clipPath id="clip0_170_216">
<rect width="49" height="49" fill="white"/>
</clipPath>
</defs>
</svg>
