<?xml version="1.0" encoding="utf-8"?><svg viewBox="0 0 49 49" xmlns="http://www.w3.org/2000/svg" xmlns:xlink="http://www.w3.org/1999/xlink"><style>:root>svg{display:none}:root>svg:target{display:block}</style><svg fill="none" viewBox="0 0 49 49" id="instagram" xmlns="http://www.w3.org/2000/svg"><g clip-path="url(#aa)"><path d="M41.183-.001H7.817A7.817 7.817 0 0 0 0 7.816v33.366C0 45.5 3.5 49 7.817 49h33.366c4.317 0 7.817-3.5 7.817-7.817V7.816c0-4.317-3.5-7.817-7.817-7.817Z" fill="url(#ab)"/><path fill-rule="evenodd" clip-rule="evenodd" d="M17.316 8.92h14.4c4.627 0 8.434 3.806 8.434 8.433V31.68c0 4.626-3.806 8.433-8.433 8.433H17.316c-4.627 0-8.433-3.806-8.433-8.433V17.352c0-4.627 3.805-8.433 8.433-8.433Zm15.596 5.449a1.816 1.816 0 0 1 1.793 1.79 1.816 1.816 0 0 1-1.79 1.79 1.766 1.766 0 0 1-1.792-1.79 1.768 1.768 0 0 1 1.791-1.792l-.002.002Zm-8.433 1.642h.074c4.627 0 8.507 3.88 8.507 8.506 0 4.702-3.88 8.507-8.507 8.507h-.074c-4.627 0-8.433-3.805-8.433-8.507 0-4.627 3.806-8.506 8.433-8.506Zm0 2.91h.074c3.06 0 5.597 2.537 5.597 5.596 0 3.134-2.537 5.671-5.597 5.671h-.074c-3.06 0-5.597-2.537-5.597-5.671 0-3.06 2.537-5.596 5.597-5.596Zm-7.089-7.314h14.253a5.828 5.828 0 0 1 5.82 5.82v14.178a5.828 5.828 0 0 1-5.82 5.82H17.39a5.828 5.828 0 0 1-5.82-5.82V17.427a5.828 5.828 0 0 1 5.82-5.82Z" fill="#fff"/></g><defs><linearGradient id="ab" x1=".579" y1="4.284" x2="48.421" y2="44.714" gradientUnits="userSpaceOnUse"><stop offset="1" stop-color="#F4600D"/></linearGradient><clipPath id="aa"><path fill="#fff" d="M0 0h49v49H0z"/></clipPath></defs></svg><svg fill="none" viewBox="0 0 49 49" id="telegram" xmlns="http://www.w3.org/2000/svg"><g clip-path="url(#ba)"><path d="M41.183-.001H7.817A7.817 7.817 0 0 0 0 7.816v33.366C0 45.5 3.5 49 7.817 49h33.366c4.317 0 7.817-3.5 7.817-7.817V7.816c0-4.317-3.5-7.817-7.817-7.817Z" fill="url(#bb)"/><path fill-rule="evenodd" clip-rule="evenodd" d="M9.768 23.98c6.742-2.828 14.897-6.85 21.965-9.57 6.525-2.391 6.416-1.74 5.437 4.785-.761 5.22-1.631 10.44-2.501 15.659-.324 2.5-1.63 3.806-4.35 2.283l-8.481-5.98c-1.196-.98-.87-1.74.109-2.719l7.828-7.394c2.066-2.066 1.087-2.828-1.304-1.196l-10.762 7.285c-1.525 1.086-3.157 1.086-4.897.544l-3.697-1.305c-2.393-.87-.544-1.848.652-2.392h.001Z" fill="#fff"/></g><defs><linearGradient id="bb" x1="0" y1="24.499" x2="49" y2="24.499" gradientUnits="userSpaceOnUse"><stop stop-color="#F15700"/></linearGradient><clipPath id="ba"><path fill="#fff" d="M0 0h49v49H0z"/></clipPath></defs></svg></svg>